<svg xmlns="http://www.w3.org/2000/svg" width="400" height="400" viewBox="0 0 400 400">
  <defs>
    <g id="petal">
      <path d="M0,0 C5,-8 12,-8 15,0 C12,8 5,8 0,0Z" fill="#fecdd3" opacity="0.4"/>
      <path d="M0,0 C-5,-8 -12,-8 -15,0 C-12,8 -5,8 0,0Z" fill="#fda4af" opacity="0.25"/>
    </g>
    <g id="petal-small">
      <path d="M0,0 C3,-5 8,-5 10,0 C8,5 3,5 0,0Z" fill="#fecdd3" opacity="0.3"/>
    </g>
  </defs>
  <rect width="400" height="400" fill="none"/>
  <use href="#petal" x="50" y="60" transform="rotate(15 50 60)"/>
  <use href="#petal" x="180" y="30" transform="rotate(-20 180 30)"/>
  <use href="#petal" x="320" y="80" transform="rotate(45 320 80)"/>
  <use href="#petal" x="100" y="200" transform="rotate(-35 100 200)"/>
  <use href="#petal" x="280" y="220" transform="rotate(60 280 220)"/>
  <use href="#petal" x="60" y="340" transform="rotate(-10 60 340)"/>
  <use href="#petal" x="340" y="330" transform="rotate(30 340 330)"/>
  <use href="#petal-small" x="230" y="140" transform="rotate(25 230 140)"/>
  <use href="#petal-small" x="150" y="300" transform="rotate(-40 150 300)"/>
  <use href="#petal-small" x="30" y="150" transform="rotate(70 30 150)"/>
  <use href="#petal-small" x="370" y="190" transform="rotate(-15 370 190)"/>
</svg>
